# xmcd CD database file
#
# Track frame offsets:
#	150
#	23090
#	46382
#
# Disc length: 910 seconds
#
# Revision: 0
# Processed by: cddbd v1.5.1PL0 Copyright (c) Steve Scherf et al.
# Submitted via: CDex 1.51
#
DISCID=1b038c03
DTITLE=PEARL - 虚ろなリアル -Lay Your Hands On Me, Baby- (Single)
DYEAR=1997
DGENRE=Pop
TTITLE0=虚ろなリアル -Lay Your Hands On Me, Baby-
TTITLE1=Everybody Tears〜すべての矛盾を愛せ〜
TTITLE2=Long Time〜夢は夢のまま〜
EXTD=YEAR: 1997
EXTT0=
EXTT1=
EXTT2=
PLAYORDER=
